<svg width="24" height="24" viewBox="0 0 24 24" fill="none" xmlns="http://www.w3.org/2000/svg">
<path d="M21.3333 24H2.6667C1.194 24 0 22.806 0 21.3333V2.6667C0 1.194 1.194 0 2.66667 0H21.3333C22.806 0 24 1.194 24 2.66667V21.3333C24 22.806 22.806 24 21.3333 24Z" fill="black"/>
<path d="M18.8397 18.6911H14.548L5.21973 5.37109H9.51147L18.8397 18.6911ZM15.0594 17.5616H16.7682L9.00012 6.50059H7.29132L15.0594 17.5616Z" fill="white"/>
<path d="M6.57863 18.6908L11.3697 13.1328L10.7432 12.3008L5.21973 18.6908H6.57863Z" fill="white"/>
<path d="M12.2695 10.4502L12.8759 11.3086L18.0895 5.30859H16.7494L12.2695 10.4502Z" fill="white"/>
</svg>
