<svg width="24" height="24" viewBox="0 0 24 24" fill="none" xmlns="http://www.w3.org/2000/svg">
<rect x="2" y="2" width="20" height="20" fill="white"/>
<path d="M22.8 0H1.2C0.88174 0 0.576515 0.126428 0.351472 0.351472C0.126428 0.576515 0 0.88174 0 1.2V22.8C0 23.1183 0.126428 23.4235 0.351472 23.6485C0.576515 23.8736 0.88174 24 1.2 24H22.8C23.1183 24 23.4235 23.8736 23.6485 23.6485C23.8736 23.4235 24 23.1183 24 22.8V1.2C24 0.88174 23.8736 0.576515 23.6485 0.351472C23.4235 0.126428 23.1183 0 22.8 0ZM17.1324 11.826C16.7172 14.4276 16.266 17.2716 16.266 17.2716C16.266 17.2716 16.2152 17.8546 15.8325 18.1101C15.6963 18.2011 15.524 18.2098 15.361 18.1931C14.8185 18.1375 14.3015 17.9268 13.8732 17.5836C13.734 17.4792 11.2716 15.9192 10.3704 15.156C10.2785 15.094 10.2038 15.0096 10.1533 14.9109C10.1028 14.8122 10.0781 14.7022 10.0816 14.5914C10.0851 14.4806 10.1166 14.3724 10.1732 14.277C10.1935 14.2428 10.2168 14.2106 10.2428 14.1807C10.3354 14.0745 10.4574 13.9982 10.5611 13.9027C11.7755 12.7846 13.182 11.442 14.046 10.578C14.4624 10.1616 14.8788 9.1908 13.1448 10.3704C11.0194 11.837 8.92001 13.2259 8.38511 13.5786C8.29744 13.6364 8.2074 13.688 8.10863 13.7237C7.90085 13.7987 7.68191 13.8396 7.46035 13.8444C7.18612 13.8504 6.9135 13.801 6.6588 13.6992C5.88499 13.4671 5.0156 13.1773 4.62086 13.0441C4.4772 12.9956 4.32961 12.9372 4.24108 12.8141C4.10031 12.6184 4.04836 12.2636 4.9944 11.8908C4.9944 11.8908 10.9944 9.4284 13.0752 8.562C13.8732 8.2152 16.578 7.1052 16.578 7.1052C16.578 7.1052 17.8272 6.6192 17.7228 7.7988C17.688 8.2896 17.4108 9.9888 17.1324 11.826Z" fill="black"/>
</svg>
