<svg width="24" height="24" viewBox="0 0 24 24" fill="none" xmlns="http://www.w3.org/2000/svg">
<rect width="24" height="24" rx="2" fill="black"/>
<path fill-rule="evenodd" clip-rule="evenodd" d="M15.8183 17.6923C15.8183 17.6923 15.3247 17.1027 14.9134 16.5954C16.7095 16.0882 17.395 14.9776 17.395 14.9776C16.8328 15.3478 16.2982 15.6083 15.8183 15.7865C15.1328 16.0744 14.4747 16.2527 13.8303 16.3761C12.5141 16.6229 11.3076 16.5543 10.2793 16.3624C9.49781 16.2116 8.826 16.0059 8.26388 15.7728C7.94853 15.6495 7.60578 15.4986 7.26303 15.3066C7.22191 15.2792 7.18075 15.2655 7.13966 15.2381C7.11225 15.2244 7.09853 15.2107 7.08481 15.2107C6.838 15.0736 6.70091 14.9776 6.70091 14.9776C6.70091 14.9776 7.35903 16.0607 9.10025 16.5817C8.68891 17.1027 8.18166 17.706 8.18166 17.706C5.15169 17.61 4 15.6357 4 15.6357C4 11.2621 5.97428 7.71118 5.97428 7.71118C7.94856 6.24418 9.81319 6.2853 9.81319 6.2853L9.95031 6.4498C7.48247 7.14905 6.35816 8.23218 6.35816 8.23218C6.35816 8.23218 6.65981 8.06765 7.16709 7.84827C8.63412 7.20387 9.79947 7.03937 10.2793 6.98452C10.3616 6.9708 10.4302 6.95708 10.5124 6.95708C11.3488 6.8474 12.2948 6.81999 13.2819 6.92965C14.5844 7.08046 15.9828 7.46437 17.4087 8.23215C17.4087 8.23215 16.3256 7.20383 13.9948 6.50462L14.1868 6.28527C14.1868 6.28527 16.0651 6.24412 18.0257 7.71115C18.0257 7.71115 20 11.2621 20 15.6357C20 15.622 18.8483 17.5963 15.8183 17.6922L15.8183 17.6923ZM14.4473 11.3444C13.6658 11.3444 13.0488 12.0162 13.0488 12.8526C13.0488 13.6889 13.6795 14.3607 14.4473 14.3607C15.2288 14.3607 15.8457 13.6889 15.8457 12.8526C15.8457 12.0162 15.2151 11.3444 14.4473 11.3444ZM9.44303 11.3444C8.66153 11.3444 8.04456 12.0162 8.04456 12.8526C8.04456 13.6889 8.67525 14.3607 9.44303 14.3607C10.2245 14.3607 10.8415 13.6889 10.8415 12.8526C10.8552 12.0162 10.2245 11.3444 9.44303 11.3444Z" fill="white"/>
</svg>
